Clean Scene Releases    http://bitxtre.me/


-------------------------------------------------------------------------------------
                                   nfo





********************************************************************************************************************                                
         Kung Fu Master 2010 DVDRiP AC3  ENG DUBBED XViD - IMAGiNE
********************************************************************************************************************

Ripper ...........: IMAGiNE                                        IMDB Rating.......:xx/10                             
Video Codec.......: XVID                                         Release Date......:05/10/10
Audio Codec.......:AC3                                           Theatre Date......:xx/xx/10
Audio Bitrate.....:448                                              Runtime.......:1h 35mn
Subtitles.........:NIL                                                 Language..........:ENGLISH
Resolution...... 720 x 400                                      IMDb URL..........:http://www.imdb.com/title/tt1220634/


[color=yellow]DETAILS:[/color]

Video
ID                               : 0
Format                           : MPEG-4 Visual
Format profile                   : Advanced Simple@L5
Format settings, BVOP            : Yes
Format settings, QPel            : No
Format settings, GMC             : No warppoints
Format settings, Matrix          : Default (H.263)
Muxing mode                      : Packed bitstream
Codec ID                         : XVID
Codec ID/Hint                    : XviD
Duration                         : 1h 35mn
Bit rate                         : 1 598 Kbps
Width                            : 720 pixels
Height                           : 400 pixels
Display aspect ratio             : 16:9
Frame rate                       : 23.976 fps
Color space                      : YUV
Chroma subsampling               : 4:2:0
Bit depth                        : 8 bits
Scan type                        : Progressive
Bits/(Pixel*Frame)               : 0.231
Stream size                      : 1.06 GiB (78%)
Writing library                  : XviD 1.1.2 (UTC 2006-11-01)

Audio
ID                               : 1
Format                           : AC-3
Format/Info                      : Audio Coding 3
Mode extension                   : CM (complete main)
Codec ID                         : 2000
Duration                         : 1h 35mn
Bit rate mode                    : Constant
Bit rate                         : 448 Kbps
Channel(s)                       : 6 channels
Channel positions                : Front: L C R, Side: L R, LFE
Sampling rate                    : 48.0 KHz
Bit depth                        : 16 bits
Stream size                      : 305 MiB (22%)
Alignment                        : Aligned on interleaves
Interleave, duration             : 42 ms (1.00 video frame)
Interleave, preload duration     : 512 ms



[color=yellow]SOURCES:[/color]

VIDEO:Kung-Fu.Master.2010.NTSC.DVDR-SADPANDA   Thanks
AUDIO:Kung-Fu.Master.2010.NTSC.DVDR-SADPANDA   Thanks

[color=yellow]NOTES:[/color]

IMAGiNE bringing you another release.........Kung-Fu.Master.2010

Right for this we made a small script just to rip the dvdr with a few added tweaks.
The source lookek poor for a dvd....colours off,not very sharp and dark :(
So we fixed what we could but colours still don't look quite right in some scenes....
The audio....well there was 2 different tracks so we ripped the english dubbed and muxed that one to our encode.
Yes the dubbing is bad and it's not our syncing :lol:

Anyway enjoy folks :)

[color=yellow]SCREENS:[/color]

[IMG]http://imagine.takagari.com/KUNG%20FU%202010/vlcsnap-58902.png[/IMG]
[IMG]http://imagine.takagari.com/KUNG%20FU%202010/vlcsnap-59424.png[/IMG]
[IMG]http://imagine.takagari.com/KUNG%20FU%202010/vlcsnap-60683.png[/IMG]
[IMG]http://imagine.takagari.com/KUNG%20FU%202010/vlcsnap-61382.png[/IMG]
[IMG]http://imagine.takagari.com/KUNG%20FU%202010/vlcsnap-61691.png[/IMG]
